<svg id="Layer_1" data-name="Layer 1" xmlns="http://www.w3.org/2000/svg" viewBox="0 0 31.63 16.74"><path d="M23.78,16.73c0,.23.21.34.37.46A3.1,3.1,0,0,1,25.53,20c0,1.19,0,2.37,0,3.55a3.13,3.13,0,0,1-1.26,2.52,3,3,0,0,1-1.78.61A23.74,23.74,0,0,1,20,26.62a2.84,2.84,0,0,1-2-1.18,3.13,3.13,0,0,1-.69-2c0-1.17,0-2.33,0-3.5a3.22,3.22,0,0,1,1-2.29,3.71,3.71,0,0,1,.54-.51c.24-.17.25-.31,0-.5s-.61-.48-.91-.72c-1.17-.92-2.34-1.82-3.49-2.76a.81.81,0,0,0-1.2,0C11.63,14.45,10,15.74,8.32,17L6.57,18.39l-1.21,1a1.08,1.08,0,0,0-.39.94c0,1.62,0,3.25,0,4.87a1.41,1.41,0,0,1-.47,1.13,1.39,1.39,0,0,1-2.24-.61A2.58,2.58,0,0,1,2.19,25c0-1.68,0-3.36,0-5a8.73,8.73,0,0,1,.11-1,2,2,0,0,1,.59-1.16c.33-.32.67-.62,1-.91l3.19-2.53,2.56-2,2.16-1.7a3.38,3.38,0,0,1,4.25.2c.65.62,1.41,1.12,2.11,1.68l2.94,2.33a1.34,1.34,0,0,0,.27.17c.18.08.29,0,.46-.13A15,15,0,0,1,24,13.06a3.05,3.05,0,0,1,3.61.3c.94.72,1.87,1.44,2.8,2.18s1.54,1.23,2.3,1.86a3,3,0,0,1,1.11,2.32c0,1.8,0,3.6,0,5.4a1.5,1.5,0,0,1-.57,1.26,1.43,1.43,0,0,1-2.19-.72,3.39,3.39,0,0,1-.1-.84c0-1.45,0-2.9,0-4.35a1.42,1.42,0,0,0-.69-1.37,18.7,18.7,0,0,1-1.57-1.25L27,16.55c-.37-.29-.72-.58-1.09-.84s-.46-.26-.8,0Zm-1.11,4.95h0V20.15a.8.8,0,0,0-.23-.68c-.3-.25-.61-.49-.91-.72a.29.29,0,0,0-.43,0,9.82,9.82,0,0,0-.77.81.92.92,0,0,0-.19.53c0,1.07,0,2.15,0,3.22,0,.38.14.51.52.52s.92,0,1.38,0,.63-.13.64-.68S22.67,22.18,22.67,21.68Z" transform="translate(-2.19 -9.95)" fill="#fff"/><path d="M15.24,23.14c0,.48,0,1,0,1.43s-.19.75-.78.76-.88,0-1.32,0-.73-.19-.74-.75c0-.95,0-1.91,0-2.86a1.43,1.43,0,0,1,1.89-1.34,1.46,1.46,0,0,1,1,1.29c0,.49,0,1,0,1.48Z" transform="translate(-2.19 -9.95)" fill="#fff"/></svg>